0
SECTION
2
HEADER
9
$INSUNITS
70
4
9
$ACADVER
1
AC1014
9
$HANDSEED
5
FFFF
0
ENDSEC
0
SECTION
2
TABLES
0
TABLE
2
VPORT
5
8
100
AcDbSymbolTable
0
ENDTAB
0
TABLE
2
LTYPE
5
5
100
AcDbSymbolTable
0
LTYPE
5
14
100
AcDbSymbolTableRecord
100
AcDbLinetypeTableRecord
2
BYBLOCK
70
0
0
LTYPE
5
15
100
AcDbSymbolTableRecord
100
AcDbLinetypeTableRecord
2
BYLAYER
70
0
0
ENDTAB
0
TABLE
2
LAYER
5
2
100
AcDbSymbolTable
70
2
0
LAYER
5
50
100
AcDbSymbolTableRecord
100
AcDbLayerTableRecord
2
0
70
0
6
CONTINUOUS
0
ENDTAB
0
TABLE
2
STYLE
5
3
100
AcDbSymbolTable
70
1
0
STYLE
5
11
100
AcDbSymbolTableRecord
100
AcDbTextStyleTableRecord
2
STANDARD
70
0
0
ENDTAB
0
TABLE
2
VIEW
5
6
100
AcDbSymbolTable
70
0
0
ENDTAB
0
TABLE
2
UCS
5
7
100
AcDbSymbolTable
70
0
0
ENDTAB
0
TABLE
2
APPID
5
9
100
AcDbSymbolTable
70
2
0
APPID
5
12
100
AcDbSymbolTableRecord
100
AcDbRegAppTableRecord
2
ACAD
70
0
0
ENDTAB
0
TABLE
2
DIMSTYLE
5
A
100
AcDbSymbolTable
70
1
0
ENDTAB
0
TABLE
2
BLOCK_RECORD
5
1
100
AcDbSymbolTable
70
1
0
BLOCK_RECORD
5
1F
100
AcDbSymbolTableRecord
100
AcDbBlockTableRecord
2
*MODEL_SPACE
0
BLOCK_RECORD
5
1B
100
AcDbSymbolTableRecord
100
AcDbBlockTableRecord
2
*PAPER_SPACE
0
ENDTAB
0
ENDSEC
0
SECTION
2
BLOCKS
0
BLOCK
5
20
100
AcDbEntity
100
AcDbBlockBegin
2
*MODEL_SPACE
0
ENDBLK
5
21
100
AcDbEntity
100
AcDbBlockEnd
0
BLOCK
5
1C
100
AcDbEntity
100
AcDbBlockBegin
2
*PAPER_SPACE
0
ENDBLK
5
1D
100
AcDbEntity
100
AcDbBlockEnd
0
ENDSEC
0
SECTION
2
ENTITIES
0
LWPOLYLINE
5
100
100
AcDbEntity
8
0
100
AcDbPolyline
90
4
70
1
43
0.0
10
350.00000000000006
20
58.999999999999986
10
343.80000000000007
20
59
10
343.80000000000007
20
50.799999999999983
10
350.00000000000006
20
50.799999999999983
0
LWPOLYLINE
5
101
100
AcDbEntity
8
0
100
AcDbPolyline
90
5
70
1
43
0.0
10
353.00000000000006
20
-2.1798713024822891e-14
10
-3.0000000000000004
20
0
10
-2.9999999999999618
20
309.99999999999989
10
7.1054273576010019e-14
20
309.99999999999989
10
353.00000000000006
20
310
0
CIRCLE
5
102
100
AcDbEntity
8
0
100
AcDbCircle
10
346.90000000000009
20
61.999999999999986
30
0
40
1.5500000000000003
0
LWPOLYLINE
5
103
100
AcDbEntity
8
0
100
AcDbPolyline
90
4
70
1
43
0.0
10
350.00000000000006
20
64.999999999999986
10
350.00000000000006
20
73.199999999999989
10
343.80000000000007
20
73.200000000000003
10
343.80000000000007
20
64.999999999999986
0
LWPOLYLINE
5
104
100
AcDbEntity
8
0
100
AcDbPolyline
90
4
70
1
43
0.0
10
343.80000000000007
20
236.80000000000001
10
350.00000000000006
20
236.80000000000001
10
350.00000000000006
20
245
10
343.80000000000007
20
245
0
CIRCLE
5
105
100
AcDbEntity
8
0
100
AcDbCircle
10
346.90000000000009
20
248
30
0
40
1.5500000000000003
0
LWPOLYLINE
5
106
100
AcDbEntity
8
0
100
AcDbPolyline
90
4
70
1
43
0.0
10
350.00000000000006
20
251
10
350.00000000000006
20
259.20000000000005
10
343.80000000000007
20
259.20000000000005
10
343.80000000000007
20
251
0
CIRCLE
5
107
100
AcDbEntity
8
0
100
AcDbCircle
10
346.90000000000009
20
154.99999999999997
30
0
40
1.5500000000000003
0
LWPOLYLINE
5
108
100
AcDbEntity
8
0
100
AcDbPolyline
90
4
70
1
43
0.0
10
343.80000000000007
20
151.99999999999997
10
343.80000000000007
20
143.79999999999998
10
350.00000000000006
20
143.79999999999998
10
350.00000000000006
20
151.99999999999997
0
LWPOLYLINE
5
109
100
AcDbEntity
8
0
100
AcDbPolyline
90
4
70
1
43
0.0
10
343.80000000000007
20
166.19999999999999
10
343.80000000000007
20
158
10
350.00000000000006
20
158
10
350.00000000000006
20
166.19999999999999
0
LWPOLYLINE
5
110
100
AcDbEntity
8
0
100
AcDbPolyline
90
4
70
1
43
0.0
10
6.2000000000000099
20
151.99999999999997
10
3.5527136788005009e-14
20
151.99999999999997
10
3.5527136788005009e-14
20
143.79999999999998
10
6.2000000000000099
20
143.79999999999998
0
LWPOLYLINE
5
111
100
AcDbEntity
8
0
100
AcDbPolyline
90
4
70
1
43
0.0
10
6.2000000000000099
20
166.19999999999999
10
3.5527136788005009e-14
20
166.19999999999999
10
3.5527136788005009e-14
20
158
10
6.2000000000000099
20
158
0
LWPOLYLINE
5
112
100
AcDbEntity
8
0
100
AcDbPolyline
90
4
70
1
43
0.0
10
3.5527136788005009e-14
20
259.20000000000005
10
3.5527136788005009e-14
20
251
10
6.2000000000000099
20
251
10
6.2000000000000099
20
259.20000000000005
0
LWPOLYLINE
5
113
100
AcDbEntity
8
0
100
AcDbPolyline
90
4
70
1
43
0.0
10
3.5527136788005009e-14
20
245
10
3.5527136788005009e-14
20
236.80000000000001
10
6.2000000000000099
20
236.80000000000001
10
6.2000000000000099
20
245
0
CIRCLE
5
114
100
AcDbEntity
8
0
100
AcDbCircle
10
3.1000000000000583
20
248
30
0
40
1.5500000000000003
0
LWPOLYLINE
5
115
100
AcDbEntity
8
0
100
AcDbPolyline
90
4
70
1
43
0.0
10
6.2000000000000099
20
64.999999999999986
10
6.2000000000000099
20
73.199999999999989
10
3.5527136788005009e-14
20
73.200000000000003
10
3.5527136788005009e-14
20
64.999999999999986
0
LWPOLYLINE
5
116
100
AcDbEntity
8
0
100
AcDbPolyline
90
4
70
1
43
0.0
10
6.2000000000000099
20
58.999999999999972
10
3.5527136788005009e-14
20
58.999999999999986
10
3.5527136788005009e-14
20
50.799999999999983
10
6.2000000000000099
20
50.799999999999983
0
CIRCLE
5
117
100
AcDbEntity
8
0
100
AcDbCircle
10
3.1000000000000583
20
61.999999999999986
30
0
40
1.5500000000000003
0
CIRCLE
5
118
100
AcDbEntity
8
0
100
AcDbCircle
10
3.1000000000000583
20
154.99999999999997
30
0
40
1.5500000000000003
0
LWPOLYLINE
5
119
100
AcDbEntity
8
0
100
AcDbPolyline
90
4
70
1
43
0.0
10
37.000000000000028
20
275
10
307
20
275
10
307
20
35
10
37.000000000000036
20
35
0
ENDSEC
0
SECTION
2
OBJECTS
0
DICTIONARY
5
C
100
AcDbDictionary
3
ACAD_GROUP
350
D
3
ACAD_MLINESTYLE
350
17
0
DICTIONARY
5
D
100
AcDbDictionary
0
DICTIONARY
5
1A
330
C
100
AcDbDictionary
0
DICTIONARY
5
17
100
AcDbDictionary
0
ENDSEC
0
EOF
