0
SECTION
2
HEADER
9
$INSUNITS
70
4
9
$ACADVER
1
AC1014
9
$HANDSEED
5
FFFF
0
ENDSEC
0
SECTION
2
TABLES
0
TABLE
2
VPORT
5
8
100
AcDbSymbolTable
0
ENDTAB
0
TABLE
2
LTYPE
5
5
100
AcDbSymbolTable
0
LTYPE
5
14
100
AcDbSymbolTableRecord
100
AcDbLinetypeTableRecord
2
BYBLOCK
70
0
0
LTYPE
5
15
100
AcDbSymbolTableRecord
100
AcDbLinetypeTableRecord
2
BYLAYER
70
0
0
ENDTAB
0
TABLE
2
LAYER
5
2
100
AcDbSymbolTable
70
2
0
LAYER
5
50
100
AcDbSymbolTableRecord
100
AcDbLayerTableRecord
2
0
70
0
6
CONTINUOUS
0
ENDTAB
0
TABLE
2
STYLE
5
3
100
AcDbSymbolTable
70
1
0
STYLE
5
11
100
AcDbSymbolTableRecord
100
AcDbTextStyleTableRecord
2
STANDARD
70
0
0
ENDTAB
0
TABLE
2
VIEW
5
6
100
AcDbSymbolTable
70
0
0
ENDTAB
0
TABLE
2
UCS
5
7
100
AcDbSymbolTable
70
0
0
ENDTAB
0
TABLE
2
APPID
5
9
100
AcDbSymbolTable
70
2
0
APPID
5
12
100
AcDbSymbolTableRecord
100
AcDbRegAppTableRecord
2
ACAD
70
0
0
ENDTAB
0
TABLE
2
DIMSTYLE
5
A
100
AcDbSymbolTable
70
1
0
ENDTAB
0
TABLE
2
BLOCK_RECORD
5
1
100
AcDbSymbolTable
70
1
0
BLOCK_RECORD
5
1F
100
AcDbSymbolTableRecord
100
AcDbBlockTableRecord
2
*MODEL_SPACE
0
BLOCK_RECORD
5
1B
100
AcDbSymbolTableRecord
100
AcDbBlockTableRecord
2
*PAPER_SPACE
0
ENDTAB
0
ENDSEC
0
SECTION
2
BLOCKS
0
BLOCK
5
20
100
AcDbEntity
100
AcDbBlockBegin
2
*MODEL_SPACE
0
ENDBLK
5
21
100
AcDbEntity
100
AcDbBlockEnd
0
BLOCK
5
1C
100
AcDbEntity
100
AcDbBlockBegin
2
*PAPER_SPACE
0
ENDBLK
5
1D
100
AcDbEntity
100
AcDbBlockEnd
0
ENDSEC
0
SECTION
2
ENTITIES
0
LWPOLYLINE
5
100
100
AcDbEntity
8
0
100
AcDbPolyline
90
4
70
1
43
0.0
10
350
20
-259.5
10
350
20
-251.30000000000001
10
343.80000000000001
20
-251.30000000000001
10
343.80000000000001
20
-259.5
0
CIRCLE
5
101
100
AcDbEntity
8
0
100
AcDbCircle
10
346.90000000000003
20
-262.50000000000006
30
0
40
1.5500000000000003
0
LWPOLYLINE
5
102
100
AcDbEntity
8
0
100
AcDbPolyline
90
4
70
1
43
0.0
10
6.2000000000000401
20
-178
10
3.8654932128040361e-14
20
-178
10
3.8857805861880479e-14
20
-186.20000000000002
10
6.2000000000000401
20
-186.20000000000002
0
LWPOLYLINE
5
103
100
AcDbEntity
8
0
100
AcDbPolyline
90
4
70
1
43
0.0
10
3.8857805861880479e-14
20
-98.700000000000117
10
6.2000000000000135
20
-98.700000000000117
10
6.2000000000000135
20
-90.500000000000114
10
3.8857805861880479e-14
20
-90.500000000000114
0
LWPOLYLINE
5
104
100
AcDbEntity
8
0
100
AcDbPolyline
90
4
70
1
43
0.0
10
3.8857805861880479e-14
20
-172
10
6.2000000000000401
20
-172
10
6.2000000000000401
20
-163.79999999999998
10
3.8857805861880479e-14
20
-163.79999999999998
0
LWPOLYLINE
5
105
100
AcDbEntity
8
0
100
AcDbPolyline
90
4
70
1
43
0.0
10
343.80000000000007
20
-163.80000000000001
10
343.80000000000007
20
-172
10
350.00000000000006
20
-172
10
350.00000000000006
20
-163.80000000000001
0
CIRCLE
5
106
100
AcDbEntity
8
0
100
AcDbCircle
10
346.90000000000009
20
-175
30
0
40
1.5500000000000003
0
LWPOLYLINE
5
107
100
AcDbEntity
8
0
100
AcDbPolyline
90
4
70
1
43
0.0
10
343.80000000000007
20
-178
10
343.80000000000007
20
-186.20000000000005
10
350.00000000000006
20
-186.20000000000005
10
350.00000000000006
20
-178
0
LWPOLYLINE
5
108
100
AcDbEntity
8
0
100
AcDbPolyline
90
4
70
1
43
0.0
10
343.80000000000007
20
-90.5
10
343.80000000000007
20
-98.700000000000017
10
350.00000000000006
20
-98.700000000000017
10
350.00000000000006
20
-90.5
0
LWPOLYLINE
5
109
100
AcDbEntity
8
0
100
AcDbPolyline
90
4
70
1
43
0.0
10
343.80000000000007
20
-76.299999999999983
10
343.80000000000007
20
-84.5
10
350.00000000000006
20
-84.5
10
350.00000000000006
20
-76.299999999999983
0
CIRCLE
5
110
100
AcDbEntity
8
0
100
AcDbCircle
10
346.90000000000009
20
-87.5
30
0
40
1.5500000000000003
0
LWPOLYLINE
5
111
100
AcDbEntity
8
0
100
AcDbPolyline
90
4
70
1
43
0.0
10
3.8857805861880479e-14
20
-76.300000000000097
10
3.8857805861880479e-14
20
-84.500000000000099
10
6.2000000000000135
20
-84.500000000000099
10
6.2000000000000135
20
-76.300000000000097
0
CIRCLE
5
112
100
AcDbEntity
8
0
100
AcDbCircle
10
3.1000000000000396
20
-175
30
0
40
1.5500000000000003
0
LWPOLYLINE
5
113
100
AcDbEntity
8
0
100
AcDbPolyline
90
4
70
1
43
0.0
10
3.8857805861880479e-14
20
-251.29999999999995
10
3.8857805861880479e-14
20
-259.5
10
6.2000000000000384
20
-259.5
10
6.2000000000000384
20
-251.29999999999995
0
CIRCLE
5
114
100
AcDbEntity
8
0
100
AcDbCircle
10
3.1000000000000396
20
-262.5
30
0
40
1.5500000000000003
0
LWPOLYLINE
5
115
100
AcDbEntity
8
0
100
AcDbPolyline
90
4
70
1
43
0.0
10
6.2000000000000384
20
-265.5
10
3.8461646751184241e-14
20
-265.5
10
3.8857805861880479e-14
20
-273.70000000000005
10
6.2000000000000384
20
-273.70000000000005
0
LWPOLYLINE
5
116
100
AcDbEntity
8
0
100
AcDbPolyline
90
8
70
1
43
0.0
10
-2.9999999999999987
20
-350
10
-2.9999999999999618
20
-1.0658141036401503e-13
10
-2.9999999999999716
20
5.9999999999998943
10
353.00000000000006
20
5.9999999999998943
10
353.00000000000006
20
0
10
353
20
-350
10
353.0000052601099
20
-356
10
-2.9999999999999987
20
-356
0
LWPOLYLINE
5
117
100
AcDbEntity
8
0
100
AcDbPolyline
90
4
70
1
43
0.0
10
350
20
-273.70000000000005
10
350
20
-265.50000000000006
10
343.80000000000001
20
-265.50000000000006
10
343.80000000000007
20
-273.70000000000005
0
CIRCLE
5
118
100
AcDbEntity
8
0
100
AcDbCircle
10
3.1000000000000618
20
-87.500000000000114
30
0
40
1.5500000000000003
0
ENDSEC
0
SECTION
2
OBJECTS
0
DICTIONARY
5
C
100
AcDbDictionary
3
ACAD_GROUP
350
D
3
ACAD_MLINESTYLE
350
17
0
DICTIONARY
5
D
100
AcDbDictionary
0
DICTIONARY
5
1A
330
C
100
AcDbDictionary
0
DICTIONARY
5
17
100
AcDbDictionary
0
ENDSEC
0
EOF
