0
SECTION
2
HEADER
9
$INSUNITS
70
4
9
$ACADVER
1
AC1014
9
$HANDSEED
5
FFFF
0
ENDSEC
0
SECTION
2
TABLES
0
TABLE
2
VPORT
5
8
100
AcDbSymbolTable
0
ENDTAB
0
TABLE
2
LTYPE
5
5
100
AcDbSymbolTable
0
LTYPE
5
14
100
AcDbSymbolTableRecord
100
AcDbLinetypeTableRecord
2
BYBLOCK
70
0
0
LTYPE
5
15
100
AcDbSymbolTableRecord
100
AcDbLinetypeTableRecord
2
BYLAYER
70
0
0
ENDTAB
0
TABLE
2
LAYER
5
2
100
AcDbSymbolTable
70
2
0
LAYER
5
50
100
AcDbSymbolTableRecord
100
AcDbLayerTableRecord
2
0
70
0
6
CONTINUOUS
0
ENDTAB
0
TABLE
2
STYLE
5
3
100
AcDbSymbolTable
70
1
0
STYLE
5
11
100
AcDbSymbolTableRecord
100
AcDbTextStyleTableRecord
2
STANDARD
70
0
0
ENDTAB
0
TABLE
2
VIEW
5
6
100
AcDbSymbolTable
70
0
0
ENDTAB
0
TABLE
2
UCS
5
7
100
AcDbSymbolTable
70
0
0
ENDTAB
0
TABLE
2
APPID
5
9
100
AcDbSymbolTable
70
2
0
APPID
5
12
100
AcDbSymbolTableRecord
100
AcDbRegAppTableRecord
2
ACAD
70
0
0
ENDTAB
0
TABLE
2
DIMSTYLE
5
A
100
AcDbSymbolTable
70
1
0
ENDTAB
0
TABLE
2
BLOCK_RECORD
5
1
100
AcDbSymbolTable
70
1
0
BLOCK_RECORD
5
1F
100
AcDbSymbolTableRecord
100
AcDbBlockTableRecord
2
*MODEL_SPACE
0
BLOCK_RECORD
5
1B
100
AcDbSymbolTableRecord
100
AcDbBlockTableRecord
2
*PAPER_SPACE
0
ENDTAB
0
ENDSEC
0
SECTION
2
BLOCKS
0
BLOCK
5
20
100
AcDbEntity
100
AcDbBlockBegin
2
*MODEL_SPACE
0
ENDBLK
5
21
100
AcDbEntity
100
AcDbBlockEnd
0
BLOCK
5
1C
100
AcDbEntity
100
AcDbBlockBegin
2
*PAPER_SPACE
0
ENDBLK
5
1D
100
AcDbEntity
100
AcDbBlockEnd
0
ENDSEC
0
SECTION
2
ENTITIES
0
LWPOLYLINE
5
100
100
AcDbEntity
8
0
100
AcDbPolyline
90
177
70
1
43
0.0
10
-350
20
70
10
-190
20
310
10
-153.49999999999994
20
309.99121276248729
10
-153.49999999999994
20
315.99121276248729
10
-145.49999999999972
20
315.99121276248729
10
-145.49999999999997
20
310.00000000000051
10
-144.04999999999998
20
310.00000000000023
10
-144.05000000000001
20
305.04302480967539
10
-145.50000000000006
20
305.04302480967539
10
-145.5
20
301.00000000000068
10
-144.05000017365717
20
301.00000000000068
10
-140.94999982634283
20
301.00000000000045
10
-139.49999982634282
20
301.00000000000057
10
-139.49999982634282
20
305.04302480967539
10
-140.94999999999999
20
305.04302480967539
10
-140.94999999999996
20
310
10
-139.5689102280619
20
309.99999999999994
10
-139.50000000000156
20
309.99999999999994
10
-139.50000000000153
20
315.99999999999994
10
-131.49999999998619
20
315.99999999999847
10
-131.50000000000102
20
310.00000000000034
10
-58.499999999999957
20
309.99121276248729
10
-58.499999999999957
20
315.99121276248729
10
-50.499999999999723
20
315.99121276248729
10
-50.499999999999972
20
310.00000000000051
10
-49.049999999999976
20
310.00000000000023
10
-49.050000000000011
20
305.04302480967539
10
-50.500000000000043
20
305.04302480967539
10
-50.500000000000007
20
301.00000000000068
10
-49.050000173657153
20
301.00000000000068
10
-45.949999826342847
20
301.00000000000045
10
-44.499999826342815
20
301.00000000000057
10
-44.499999826342815
20
305.04302480967539
10
-45.949999999999989
20
305.04302480967539
10
-45.949999999999953
20
310
10
-44.568910228061895
20
309.99999999999994
10
-44.500000000001556
20
309.99999999999994
10
-44.500000000001521
20
315.99999999999994
10
-36.499999999986201
20
315.99999999999847
10
-36.500000000001016
20
310.00000000000034
10
0
20
310
10
-0.0087872375131747837
20
259
10
5.9912127624868212
20
259
10
5.991212762486839
20
250.9999999999998
10
2.886579864025407e-14
20
251.00000000000006
10
-2.55351295663786e-13
20
249.55000000000007
10
-4.9569751903251174
20
249.55000000000007
10
-4.9569751903251174
20
251.00000000000009
10
-8.9999999999997797
20
251.00000000000009
10
-8.9999999999997797
20
249.55000017365722
10
-8.9999999999999929
20
246.44999982634292
10
-8.9999999999998508
20
244.9999998263429
10
-4.9569751903250818
20
244.9999998263429
10
-4.9569751903250818
20
246.45000000000007
10
-4.6851411639181606e-13
20
246.45000000000005
10
-5.3956838996782608e-13
20
245.06891022806198
10
-5.3956838996782608e-13
20
245.00000000000165
10
5.9999999999994564
20
245.00000000000159
10
6.0000000000473648
20
236.99999999998738
10
6.7358785216242723e-10
20
237.00000000000108
10
-0.0087872375132036495
20
166
10
5.9912127624867928
20
166
10
5.9912127624868106
20
157.9999999999998
10
0
20
158.00000000000006
10
-2.8421709430404007e-13
20
156.55000000000007
10
-4.9569751903251458
20
156.55000000000007
10
-4.9569751903251458
20
158.00000000000009
10
-8.9999999999998082
20
158.00000000000009
10
-8.9999999999998082
20
156.55000017365725
10
-9.0000000000000213
20
153.44999982634295
10
-8.9999999999998792
20
151.9999998263429
10
-4.9569751903251102
20
151.9999998263429
10
-4.9569751903251102
20
153.45000000000007
10
-4.9737991503207013e-13
20
153.45000000000005
10
-5.6843418860808015e-13
20
152.06891022806198
10
-5.6843418860808015e-13
20
152.00000000000165
10
5.999999999999428
20
152.00000000000162
10
6.0000000000473364
20
143.99999999998741
10
6.7355898636378697e-10
20
144.00000000000114
10
-0.012871318756378924
20
73.001034670789011
10
5.9871286812436173
20
73.001034670789011
10
5.9871286812436351
20
65.001034670788812
10
-0.0040840812431752749
20
65.001034670789068
10
-0.004084081243459492
20
63.551034670789065
10
-4.9610592715683213
20
63.551034670789065
10
-4.9610592715683213
20
65.001034670789096
10
-9.0040840812429828
20
65.001034670789096
10
-9.0040840812429828
20
63.551034844446249
10
-9.0040840812431959
20
60.451034497131943
10
-9.0040840812430538
20
59.001034497131911
10
-4.9610592715682857
20
59.001034497131911
10
-4.9610592715682857
20
60.451034670789085
10
-0.0040840812436726548
20
60.451034670789042
10
-0.0040840812437437091
20
59.069944898850991
10
-0.0040840812437437091
20
59.001034670790645
10
5.9959159187562525
20
59.001034670790617
10
5.9959159188041609
20
51.001034670776413
10
-0.0040840805696162885
20
51.001034670790126
10
0
20
0
10
-76.500000000000085
20
0.0087872375127062696
10
-76.500000000000085
20
-5.9912127624873079
10
-84.500000000000284
20
-5.9912127624873239
10
-84.500000000000028
20
-4.9737991503207013e-13
10
-85.950000000000017
20
-2.1316282072803006e-13
10
-85.950000000000017
20
4.9569751903246404
10
-84.5
20
4.9569751903246537
10
-84.5
20
8.9999999999993108
10
-85.949999826342847
20
8.9999999999993108
10
-89.050000173657153
20
8.9999999999995239
10
-90.500000173657185
20
8.9999999999993818
10
-90.500000173657185
20
4.9569751903246129
10
-89.050000000000011
20
4.9569751903246129
10
-89.05000000000004
20
0
10
-90.431089771938105
20
7.1054273576010019e-14
10
-90.499999999998437
20
7.1054273576010019e-14
10
-90.499999999998479
20
-5.9999999999999432
10
-98.500000000012705
20
-6.0000000000478604
10
-98.499999999998977
20
-6.7407801779620358e-10
10
-164.00000000000009
20
0.0087872375127062696
10
-164.00000000000009
20
-5.9912127624873079
10
-172.00000000000028
20
-5.9912127624873079
10
-172.00000000000003
20
-4.9737991503207013e-13
10
-173.45000000000002
20
-2.1316282072803006e-13
10
-173.44999999999999
20
4.9569751903246129
10
-171.99999999999994
20
4.9569751903246129
10
-172
20
8.9999999999993108
10
-173.44999982634283
20
8.9999999999993108
10
-176.55000017365717
20
8.9999999999995239
10
-178.00000017365718
20
8.9999999999993818
10
-178.00000017365718
20
4.9569751903246129
10
-176.55000000000001
20
4.9569751903246129
10
-176.55000000000004
20
0
10
-177.9310897719381
20
7.1054273576010019e-14
10
-177.99999999999844
20
7.1054273576010019e-14
10
-177.99999999999847
20
-5.9999999999999432
10
-186.00000000001381
20
-5.999999999998451
10
-185.99999999999898
20
-3.5527136788005009e-13
10
-220
20
0
10
-251.50000000000009
20
0.0087872375127062696
10
-251.50000000000009
20
-5.9912127624873079
10
-259.50000000000028
20
-5.9912127624873079
10
-259.5
20
-4.9737991503207013e-13
10
-260.95000000000005
20
-2.1316282072803006e-13
10
-260.94999999999999
20
4.9569751903246129
10
-259.49999999999994
20
4.9569751903246129
10
-259.5
20
8.9999999999993108
10
-260.94999982634283
20
8.9999999999993108
10
-264.05000017365717
20
8.9999999999995239
10
-265.50000017365721
20
8.9999999999993818
10
-265.50000017365721
20
4.9569751903246129
10
-264.05000000000001
20
4.9569751903246129
10
-264.05000000000007
20
0
10
-265.4310897719381
20
7.1054273576010019e-14
10
-265.49999999999847
20
7.1054273576010019e-14
10
-265.49999999999847
20
-5.9999999999999432
10
-273.50000000001381
20
-5.999999999998451
10
-273.49999999999898
20
-3.5527136788005009e-13
10
-350
20
0
10
-350
20
24.000000000000021
10
-356
20
24.000000000000025
10
-356
20
32.000000000000036
10
-350.00878723751322
20
32.000000000000043
10
-350.00878723751293
20
33.450000000000017
10
-345.05181204718809
20
33.449999999999996
10
-345.05181204718809
20
31.999999999999996
10
-341.00878723751339
20
31.999999999999996
10
-341.00878723751339
20
33.449999826342832
10
-341.00878723751316
20
36.55000017365716
10
-341.00878723751327
20
38.00000017365717
10
-345.05181204718809
20
38.00000017365717
10
-345.05181204718809
20
36.550000000000018
10
-350.00878723751271
20
36.55000000000004
10
-350.00878723751265
20
37.931089771938105
10
-350.00878723751265
20
38.000000000000014
10
-356.00878723751265
20
38.000000000000036
10
-356.00878723751293
20
46.000000000000099
10
-350.00878723751293
20
46.000000000000071
0
CIRCLE
5
101
100
AcDbEntity
8
0
100
AcDbCircle
10
-25.002002269809417
20
25.002872041165446
30
0
40
15
0
LWPOLYLINE
5
102
100
AcDbEntity
8
0
100
AcDbPolyline
90
4
70
1
43
0.0
10
-78.964832522906349
20
81.942142573899957
10
-70.964832522906377
20
81.942142573899957
10
-70.964832522906377
20
75.942142573899957
10
-78.964832522906349
20
75.942142573899957
0
CIRCLE
5
103
100
AcDbEntity
8
0
100
AcDbCircle
10
-81.964832522906335
20
78.942142573899957
30
0
40
1.5499999999999972
0
LWPOLYLINE
5
104
100
AcDbEntity
8
0
100
AcDbPolyline
90
4
70
1
43
0.0
10
-92.964832522906349
20
75.942142573899957
10
-92.964832522906349
20
81.942142573899957
10
-84.964832522906335
20
81.942142573899957
10
-84.964832522906335
20
75.942142573899957
0
LWPOLYLINE
5
105
100
AcDbEntity
8
0
100
AcDbPolyline
90
4
70
1
43
0.0
10
-130.96483252290636
20
75.942142573899957
10
-130.96483252290636
20
81.942142573899957
10
-122.96483252290635
20
81.942142573899957
10
-122.96483252290635
20
75.942142573899957
0
LWPOLYLINE
5
106
100
AcDbEntity
8
0
100
AcDbPolyline
90
4
70
1
43
0.0
10
-144.96483252290633
20
81.942142573899957
10
-136.96483252290633
20
81.942142573899957
10
-136.96483252290636
20
75.942142573899957
10
-144.96483252290633
20
75.942142573899957
0
CIRCLE
5
107
100
AcDbEntity
8
0
100
AcDbCircle
10
-133.96483252290636
20
78.942142573899957
30
0
40
1.5499999999999972
0
LWPOLYLINE
5
108
100
AcDbEntity
8
0
100
AcDbPolyline
90
4
70
1
43
0.0
10
-248.96483252290639
20
81.942142573899957
10
-240.96483252290639
20
81.942142573899957
10
-240.96483252290639
20
75.942142573899957
10
-248.96483252290639
20
75.942142573899957
0
LWPOLYLINE
5
109
100
AcDbEntity
8
0
100
AcDbPolyline
90
4
70
1
43
0.0
10
-234.96483252290636
20
81.942142573899957
10
-226.96483252290636
20
81.942142573899957
10
-226.96483252290636
20
75.942142573899957
10
-234.96483252290636
20
75.942142573899957
0
CIRCLE
5
110
100
AcDbEntity
8
0
100
AcDbCircle
10
-237.96483252290639
20
78.942142573899957
30
0
40
1.5499999999999972
0
LWPOLYLINE
5
111
100
AcDbEntity
8
0
100
AcDbPolyline
90
4
70
1
43
0.0
10
-182.96483252290636
20
81.942142573899957
10
-174.96483252290633
20
81.942142573899957
10
-174.96483252290633
20
75.942142573899957
10
-182.96483252290636
20
75.942142573899957
0
CIRCLE
5
112
100
AcDbEntity
8
0
100
AcDbCircle
10
-185.96483252290636
20
78.942142573899957
30
0
40
1.5499999999999972
0
LWPOLYLINE
5
113
100
AcDbEntity
8
0
100
AcDbPolyline
90
4
70
1
43
0.0
10
-196.96483252290636
20
81.942142573899957
10
-188.96483252290636
20
81.942142573899957
10
-188.96483252290636
20
75.942142573899957
10
-196.96483252290636
20
75.942142573899957
0
LWPOLYLINE
5
114
100
AcDbEntity
8
0
100
AcDbPolyline
90
4
70
1
43
0.0
10
-240.96483252290639
20
97.942142573899929
10
-234.96483252290642
20
97.942142573899929
10
-234.96483252290642
20
89.942142573899915
10
-240.96483252290639
20
89.942142573899915
0
LWPOLYLINE
5
115
100
AcDbEntity
8
0
100
AcDbPolyline
90
4
70
1
43
0.0
10
-234.96483252290642
20
103.94214257389993
10
-240.96483252290639
20
103.94214257389993
10
-240.96483252290639
20
111.94214257389994
10
-234.96483252290642
20
111.94214257389994
0
CIRCLE
5
116
100
AcDbEntity
8
0
100
AcDbCircle
10
-237.96483252290639
20
100.94214257389993
30
0
40
1.5499999999999972
0
LWPOLYLINE
5
117
100
AcDbEntity
8
0
100
AcDbPolyline
90
4
70
1
43
0.0
10
-182.96483252290642
20
89.942142573899915
10
-188.96483252290639
20
89.942142573899915
10
-188.96483252290639
20
97.942142573899929
10
-182.96483252290642
20
97.942142573899929
0
LWPOLYLINE
5
118
100
AcDbEntity
8
0
100
AcDbPolyline
90
4
70
1
43
0.0
10
-188.96483252290639
20
103.94214257389993
10
-188.96483252290639
20
111.94214257389994
10
-182.96483252290642
20
111.94214257389994
10
-182.96483252290642
20
103.94214257389993
0
CIRCLE
5
119
100
AcDbEntity
8
0
100
AcDbCircle
10
-185.96483252290639
20
100.94214257389993
30
0
40
1.5499999999999972
0
LWPOLYLINE
5
120
100
AcDbEntity
8
0
100
AcDbPolyline
90
4
70
1
43
0.0
10
-136.96483252290642
20
97.942142573899929
10
-130.96483252290642
20
97.942142573899929
10
-130.96483252290642
20
89.942142573899915
10
-136.96483252290642
20
89.942142573899915
0
LWPOLYLINE
5
121
100
AcDbEntity
8
0
100
AcDbPolyline
90
4
70
1
43
0.0
10
-130.96483252290642
20
111.94214257389994
10
-130.96483252290642
20
103.94214257389993
10
-136.96483252290642
20
103.94214257389993
10
-136.96483252290642
20
111.94214257389994
0
CIRCLE
5
122
100
AcDbEntity
8
0
100
AcDbCircle
10
-133.96483252290639
20
100.94214257389993
30
0
40
1.5499999999999972
0
LWPOLYLINE
5
123
100
AcDbEntity
8
0
100
AcDbPolyline
90
4
70
1
43
0.0
10
-84.96483252290642
20
103.94214257389993
10
-84.96483252290642
20
111.94214257389994
10
-78.964832522906434
20
111.94214257389994
10
-78.964832522906434
20
103.94214257389993
0
CIRCLE
5
124
100
AcDbEntity
8
0
100
AcDbCircle
10
-81.964832522906406
20
100.94214257389993
30
0
40
1.5499999999999972
0
LWPOLYLINE
5
125
100
AcDbEntity
8
0
100
AcDbPolyline
90
4
70
1
43
0.0
10
-84.96483252290642
20
97.942142573899929
10
-78.964832522906434
20
97.942142573899929
10
-78.964832522906434
20
89.942142573899915
10
-84.96483252290642
20
89.942142573899915
0
LWPOLYLINE
5
126
100
AcDbEntity
8
0
100
AcDbPolyline
90
4
70
1
43
0.0
10
-154.96483252290633
20
161.94214257389996
10
-154.96483252290633
20
155.94214257389996
10
-162.96483252290636
20
155.94214257389996
10
-162.96483252290636
20
161.94214257389996
0
LWPOLYLINE
5
127
100
AcDbEntity
8
0
100
AcDbPolyline
90
4
70
1
43
0.0
10
-110.96483252290642
20
183.94214257389993
10
-116.96483252290641
20
183.94214257389993
10
-116.96483252290641
20
191.94214257389996
10
-110.96483252290642
20
191.94214257389996
0
CIRCLE
5
128
100
AcDbEntity
8
0
100
AcDbCircle
10
-113.96483252290639
20
180.94214257389993
30
0
40
1.5499999999999972
0
LWPOLYLINE
5
129
100
AcDbEntity
8
0
100
AcDbPolyline
90
4
70
1
43
0.0
10
-110.96483252290642
20
169.9421425738999
10
-116.96483252290641
20
169.9421425738999
10
-116.96483252290641
20
177.94214257389993
10
-110.96483252290642
20
177.94214257389993
0
CIRCLE
5
130
100
AcDbEntity
8
0
100
AcDbCircle
10
-217.96483252290639
20
180.94214257389993
30
0
40
1.5499999999999972
0
LWPOLYLINE
5
131
100
AcDbEntity
8
0
100
AcDbPolyline
90
4
70
1
43
0.0
10
-214.96483252290636
20
161.94214257389996
10
-206.96483252290636
20
161.94214257389996
10
-206.96483252290636
20
155.94214257389996
10
-214.96483252290636
20
155.94214257389996
0
LWPOLYLINE
5
132
100
AcDbEntity
8
0
100
AcDbPolyline
90
4
70
1
43
0.0
10
-228.96483252290639
20
161.94214257389996
10
-220.96483252290639
20
161.94214257389996
10
-220.96483252290639
20
155.94214257389996
10
-228.96483252290639
20
155.94214257389996
0
LWPOLYLINE
5
133
100
AcDbEntity
8
0
100
AcDbPolyline
90
4
70
1
43
0.0
10
-64.96483252290642
20
177.94214257389993
10
-58.964832522906434
20
177.94214257389993
10
-58.964832522906434
20
169.9421425738999
10
-64.96483252290642
20
169.9421425738999
0
LWPOLYLINE
5
134
100
AcDbEntity
8
0
100
AcDbPolyline
90
4
70
1
43
0.0
10
-72.964832522906349
20
161.94214257389996
10
-64.964832522906335
20
161.94214257389996
10
-64.964832522906335
20
155.94214257389996
10
-72.964832522906349
20
155.94214257389996
0
CIRCLE
5
135
100
AcDbEntity
8
0
100
AcDbCircle
10
-61.964832522906335
20
158.94214257389996
30
0
40
1.5499999999999972
0
LWPOLYLINE
5
136
100
AcDbEntity
8
0
100
AcDbPolyline
90
4
70
1
43
0.0
10
-50.964832522906377
20
161.94214257389996
10
-50.964832522906377
20
155.94214257389996
10
-58.964832522906349
20
155.94214257389996
10
-58.964832522906349
20
161.94214257389996
0
LWPOLYLINE
5
137
100
AcDbEntity
8
0
100
AcDbPolyline
90
4
70
1
43
0.0
10
-162.96483252290642
20
191.94214257389996
10
-162.96483252290642
20
183.94214257389993
10
-168.96483252290639
20
183.94214257389993
10
-168.96483252290639
20
191.94214257389996
0
CIRCLE
5
138
100
AcDbEntity
8
0
100
AcDbCircle
10
-217.96483252290639
20
158.94214257389996
30
0
40
1.5499999999999972
0
LWPOLYLINE
5
139
100
AcDbEntity
8
0
100
AcDbPolyline
90
4
70
1
43
0.0
10
-116.96483252290633
20
161.94214257389996
10
-116.96483252290635
20
155.94214257389996
10
-124.96483252290633
20
155.94214257389996
10
-124.96483252290633
20
161.94214257389996
0
LWPOLYLINE
5
140
100
AcDbEntity
8
0
100
AcDbPolyline
90
4
70
1
43
0.0
10
-110.96483252290636
20
161.94214257389996
10
-102.96483252290635
20
161.94214257389996
10
-102.96483252290635
20
155.94214257389996
10
-110.96483252290636
20
155.94214257389996
0
CIRCLE
5
141
100
AcDbEntity
8
0
100
AcDbCircle
10
-113.96483252290636
20
158.94214257389996
30
0
40
1.5499999999999972
0
LWPOLYLINE
5
142
100
AcDbEntity
8
0
100
AcDbPolyline
90
4
70
1
43
0.0
10
-220.96483252290639
20
183.94214257389993
10
-220.96483252290639
20
191.94214257389996
10
-214.96483252290642
20
191.94214257389996
10
-214.96483252290642
20
183.94214257389993
0
LWPOLYLINE
5
143
100
AcDbEntity
8
0
100
AcDbPolyline
90
4
70
1
43
0.0
10
-220.96483252290639
20
177.94214257389993
10
-214.96483252290642
20
177.94214257389993
10
-214.96483252290642
20
169.9421425738999
10
-220.96483252290639
20
169.9421425738999
0
LWPOLYLINE
5
144
100
AcDbEntity
8
0
100
AcDbPolyline
90
4
70
1
43
0.0
10
-58.964832522906434
20
191.94214257389996
10
-58.964832522906434
20
183.94214257389993
10
-64.96483252290642
20
183.94214257389993
10
-64.96483252290642
20
191.94214257389996
0
CIRCLE
5
145
100
AcDbEntity
8
0
100
AcDbCircle
10
-61.964832522906406
20
180.94214257389993
30
0
40
1.5499999999999972
0
LWPOLYLINE
5
146
100
AcDbEntity
8
0
100
AcDbPolyline
90
4
70
1
43
0.0
10
-168.96483252290639
20
177.94214257389993
10
-162.96483252290642
20
177.94214257389993
10
-162.96483252290642
20
169.9421425738999
10
-168.96483252290639
20
169.9421425738999
0
CIRCLE
5
147
100
AcDbEntity
8
0
100
AcDbCircle
10
-165.96483252290639
20
180.94214257389993
30
0
40
1.5499999999999972
0
LWPOLYLINE
5
148
100
AcDbEntity
8
0
100
AcDbPolyline
90
4
70
1
43
0.0
10
-176.96483252290636
20
155.94214257389996
10
-176.96483252290636
20
161.94214257389996
10
-168.96483252290636
20
161.94214257389996
10
-168.96483252290636
20
155.94214257389996
0
CIRCLE
5
149
100
AcDbEntity
8
0
100
AcDbCircle
10
-165.96483252290636
20
158.94214257389996
30
0
40
1.5499999999999972
0
ENDSEC
0
SECTION
2
OBJECTS
0
DICTIONARY
5
C
100
AcDbDictionary
3
ACAD_GROUP
350
D
3
ACAD_MLINESTYLE
350
17
0
DICTIONARY
5
D
100
AcDbDictionary
0
DICTIONARY
5
1A
330
C
100
AcDbDictionary
0
DICTIONARY
5
17
100
AcDbDictionary
0
ENDSEC
0
EOF
